<?xml version="1.0" encoding="utf-8"?>
<!-- Generator: Adobe Illustrator 16.0.0, SVG Export Plug-In . SVG Version: 6.00 Build 0)  -->
<!DOCTYPE svg PUBLIC "-//W3C//DTD SVG 1.1//EN" "http://www.w3.org/Graphics/SVG/1.1/DTD/svg11.dtd">
<svg version="1.1" id="Capa_1" xmlns="http://www.w3.org/2000/svg" xmlns:xlink="http://www.w3.org/1999/xlink" x="0px" y="0px"
	 width="2114.199px" height="1484.938px" viewBox="0 0 2114.199 1484.938" enable-background="new 0 0 2114.199 1484.938"
	 xml:space="preserve">
<g>
	<g>
		<g>
			<g>
				<polygon fill="#F2F2F2" points="586.068,860.059 465.096,744.244 619.263,800.961 				"/>
				<polygon fill="#F2F2F2" points="728.913,951.885 586.068,860.059 619.263,800.961 				"/>
				<polygon fill="#E2E2E2" points="728.913,951.885 619.263,800.961 766.002,803.23 				"/>
				<polygon fill="#E2E2E2" points="728.913,951.885 766.002,803.23 877.735,887.434 				"/>
				<polygon fill="#F9F9F9" points="766.002,803.23 901.68,781.431 877.735,887.434 				"/>
				<polygon fill="#F4F4F4" points="728.913,951.885 877.735,887.434 821.562,995.557 				"/>
				<polygon fill="#E2E2E2" points="821.562,995.557 877.735,887.434 941.507,1034.407 				"/>
				<polygon fill="#FFFFFF" points="877.735,887.434 901.68,781.431 941.507,1034.407 				"/>
				<polygon fill="#E2E2E2" points="926.883,941.496 901.68,781.431 1044.138,820.988 				"/>
				<polygon fill="#FFFFFF" points="1044.138,820.988 901.68,781.431 1075.848,748.104 				"/>
				<polygon fill="#F9F9F9" points="1041.069,1054.203 926.883,941.496 1044.138,820.988 				"/>
				<polygon fill="#F2F2F2" points="1041.069,1054.203 941.507,1034.407 926.883,941.496 				"/>
				<polygon fill="#F2F2F2" points="1044.138,820.988 1075.848,748.104 1148.938,884.629 				"/>
				<polygon fill="#F9F9F9" points="1075.848,748.104 1178.521,726.736 1148.938,884.629 				"/>
				<polygon fill="#E2E2E2" points="1041.069,1054.203 1044.138,820.988 1148.938,884.629 				"/>
				<polygon fill="#EFEFEF" points="1041.069,1054.203 1148.938,884.629 1178.312,920.376 				"/>
				<polygon fill="#E0E0E0" points="1041.069,1054.203 1178.312,920.376 1259.741,1060.561 				"/>
				<polygon fill="#F2F2F2" points="1178.312,920.376 1259.536,887.434 1259.741,1060.561 				"/>
				<polygon fill="#FFFFFF" points="1259.536,887.434 1362.256,730.156 1423.125,1032.323 				"/>
				<polygon fill="#E0E0E0" points="1259.741,1060.561 1259.536,887.434 1423.125,1032.323 				"/>
				<polygon fill="#E0E0E0" points="1362.256,730.156 1409.817,620.49 1653.492,937.594 				"/>
				<polygon fill="#EFEFEF" points="1423.125,1032.323 1362.256,730.156 1653.492,937.594 				"/>
				<polygon fill="#F7F7F7" points="1409.817,620.49 1501.263,552.979 1560.337,816.363 				"/>
				<polygon fill="#FFFFFF" points="1560.337,816.363 1775.073,730.156 1653.492,937.594 				"/>
				<polygon fill="#E0E0E0" points="1560.337,816.363 1501.263,552.979 1775.073,730.156 				"/>
				<polygon fill="#F4F4F4" points="1653.492,937.594 1775.073,730.156 1881.092,755.745 				"/>
				<polygon fill="#FFFFFF" points="1501.263,552.979 1586.918,455.832 1653.492,651.482 				"/>
				<polygon fill="#F7F7F7" points="1653.492,651.482 1809.27,363.508 1775.073,730.156 				"/>
				<polygon fill="#EDEDED" points="1586.918,455.832 1809.27,363.508 1653.492,651.482 				"/>
				<polygon fill="#FFFFFF" points="1775.073,730.156 1809.27,363.508 2021.658,557.834 				"/>
				<polygon fill="#E2E2E2" points="1775.073,730.156 2021.658,557.834 1881.092,755.745 				"/>
				<polygon fill="#F2F2F2" points="2021.658,557.834 1809.27,363.508 2092.968,385.326 				"/>
				<polygon fill="#F7F7F7" points="1809.27,363.508 2016.081,271.035 2092.968,385.326 				"/>
				<polygon fill="#F2F2F2" points="2092.968,385.326 2016.081,271.035 2077.881,241.745 				"/>
				<polygon fill="#D3D3D3" points="2092.968,385.326 2077.881,241.745 2114.199,285.479 				"/>
			</g>
			<g>
				<polygon fill="#FB015B" points="598.942,24.346 418,24.662 583.726,0 				"/>
				<polygon fill="#FB015B" points="545.729,111.248 418,24.662 598.942,24.346 				"/>
				<polygon fill="#FB015B" points="418.221,134.985 418,24.662 481.655,67.797 				"/>
				<polygon fill="#FB015B" points="418.221,134.985 481.655,67.797 545.729,111.248 				"/>
				<polygon fill="#FB015B" points="438.038,186.936 418.221,134.985 545.729,111.248 				"/>
				<polygon fill="#FB015B" points="438.038,186.936 365.144,201.803 418.221,134.985 				"/>
				<polygon fill="#FB015B" points="418.221,134.985 295.094,79.762 330.729,38.318 				"/>
				<polygon fill="#FB015B" points="418.221,134.985 330.729,38.318 418,24.662 				"/>
				<polygon fill="#FB015B" points="170.891,102.631 295.094,79.762 365.144,201.803 				"/>
				<polygon fill="#FB015B" points="365.144,201.803 295.094,79.762 418.221,134.985 				"/>
				<polygon fill="#FB015B" points="218.711,65.713 262.224,32.363 295.094,79.762 				"/>
				<polygon fill="#FB015B" points="170.891,102.631 0,0.941 262.224,32.363 				"/>
				<polygon fill="#FB015B" points="6.992,51.448 0,0.941 170.891,102.631 				"/>
				<polygon fill="#FB015B" points="90.589,149.096 6.992,51.448 170.891,102.631 				"/>
				<polygon fill="#FB015B" points="90.589,149.096 170.891,102.631 177.763,196.754 				"/>
				<polygon fill="#FB015B" points="177.763,196.754 170.891,102.631 365.144,201.803 				"/>
				<polygon fill="#FB015B" points="170.891,102.631 218.711,65.713 295.094,79.762 				"/>
				<polygon fill="#FB015B" points="283.467,475.223 219.031,197.865 365.144,201.803 				"/>
				<polygon fill="#FB015B" points="324.89,336.541 365.144,201.803 449.935,409.34 				"/>
				<polygon fill="#FB015B" points="449.935,409.34 371.062,216.291 811.871,180.841 				"/>
				<polygon fill="#FB015B" points="283.467,475.223 324.89,336.541 449.935,409.34 				"/>
				<polygon fill="#FB015B" points="626.856,594.326 449.935,409.34 713.986,242.637 				"/>
				<polygon fill="#FB015B" points="626.856,594.326 713.986,242.637 1132.591,438.916 				"/>
				<polygon fill="#FB015B" points="713.986,242.637 811.871,180.841 936.945,347.178 				"/>
				<polygon fill="#FB015B" points="811.871,180.841 1217.267,165.707 936.945,347.178 				"/>
				<polygon fill="#FB015B" points="936.945,347.178 1217.267,165.707 1132.591,438.916 				"/>
				<polygon fill="#FB015B" points="1132.591,438.916 1217.267,165.707 1501.263,552.979 				"/>
				<polygon fill="#FB015B" points="1217.267,165.707 1516.354,168.062 1501.263,552.979 				"/>
				<polygon fill="#FB015B" points="1501.263,552.979 1511.093,302.313 1586.918,455.832 				"/>
				<polygon fill="#FB015B" points="1511.093,302.313 1516.354,168.062 1941.213,203.527 				"/>
				<polygon fill="#FB015B" points="1586.918,455.832 1511.093,302.313 1791.253,237.967 				"/>
				<polygon fill="#FB015B" points="1586.918,455.832 1791.253,237.967 1809.27,363.508 				"/>
				<polygon fill="#FB015B" points="1809.27,363.508 1791.253,237.967 1996.578,279.762 				"/>
				<polygon fill="#FB015B" points="1791.253,237.967 1941.213,203.527 1996.578,279.762 				"/>
				<polygon fill="#FB015B" points="1996.578,279.762 1941.213,203.527 1996.952,209.352 				"/>
				<polygon fill="#FB015B" points="1996.578,279.762 1996.952,209.352 2028.864,227.014 				"/>
				<polygon fill="#FB015B" points="626.856,594.326 283.467,475.223 449.935,409.34 				"/>
				<polygon fill="#FB015B" points="465.096,744.244 283.467,475.223 626.856,594.326 				"/>
				<polygon fill="#FB015B" points="465.096,744.244 626.856,594.326 619.263,800.961 				"/>
				<polygon fill="#FB015B" points="619.263,800.961 626.856,594.326 812.331,628.68 				"/>
				<polygon fill="#FB015B" points="766.002,803.23 619.263,800.961 812.331,628.68 				"/>
				<polygon fill="#FB015B" points="766.002,803.23 812.331,628.68 901.68,781.431 				"/>
				<polygon fill="#FB015B" points="901.68,781.431 812.331,628.68 951.044,494.702 				"/>
				<polygon fill="#FB015B" points="812.331,628.68 626.856,594.326 951.044,494.702 				"/>
				<polygon fill="#FB015B" points="901.68,781.431 951.044,494.702 1178.521,726.736 				"/>
				<polygon fill="#FB015B" points="951.044,494.702 1132.591,438.916 1178.521,726.736 				"/>
				<polygon fill="#FB015B" points="1178.521,726.736 1132.591,438.916 1409.817,620.49 				"/>
				<polygon fill="#FB015B" points="1409.817,620.49 1132.591,438.916 1501.263,552.979 				"/>
				<polygon fill="#FB015B" points="1362.256,730.156 1178.521,726.945 1409.817,620.691 				"/>
				<polygon fill="#FB015B" points="1259.536,887.434 1178.521,726.945 1362.256,730.156 				"/>
				<polygon fill="#FB015B" points="1148.938,884.629 1178.521,726.945 1259.536,887.434 				"/>
				<polygon fill="#FB015B" points="1178.312,920.376 1148.938,884.629 1259.536,887.434 				"/>
				<polygon opacity="0.1" fill="#FFFFFF" enable-background="new    " points="598.942,24.346 418,24.662 583.726,0 				"/>
				<polygon opacity="0.1" enable-background="new    " points="545.729,111.248 418,24.662 598.942,24.346 				"/>
				<polygon opacity="0.1" fill="#FFFFFF" enable-background="new    " points="418.221,134.985 418,24.662 481.655,67.797 				"/>
				<polygon opacity="0.3" fill="#FFFFFF" enable-background="new    " points="418.221,134.985 481.655,67.797 545.729,111.248 
									"/>
				<polygon fill="#621D36" points="438.038,186.936 418.221,134.985 545.729,111.248 				"/>
				<polygon opacity="0.1" fill="#FFFFFF" enable-background="new    " points="438.038,186.936 365.144,201.803 418.221,134.985 
									"/>
				<polygon opacity="0.1" fill="#FFFFFF" enable-background="new    " points="418.221,134.985 295.094,79.762 330.729,38.318 				
					"/>
				<polygon opacity="0.3" fill="#FFFFFF" enable-background="new    " points="418.221,134.985 330.729,38.318 418,24.662 				"/>
				<polygon opacity="0.1" fill="#FFFFFF" enable-background="new    " points="170.891,102.631 295.094,79.762 365.144,201.803 
									"/>
				<polygon fill="#AE003E" points="365.144,201.803 295.094,79.762 418.221,134.985 				"/>
				<polygon opacity="0.1" fill="#FFFFFF" enable-background="new    " points="218.711,65.713 262.224,32.363 295.094,79.762 				
					"/>
				<polygon opacity="0.2" enable-background="new    " points="170.891,102.631 0,0.941 262.224,32.363 				"/>
				<polygon fill="#620023" points="6.992,51.448 0,0.941 170.891,102.631 				"/>
				<polygon fill="#621D36" points="90.589,149.096 6.992,51.448 170.891,102.631 				"/>
				<polygon opacity="0.1" fill="#FFFFFF" enable-background="new    " points="90.589,149.096 170.891,102.631 177.763,196.754 
									"/>
				<polygon opacity="0.3" enable-background="new    " points="177.763,196.754 170.891,102.631 365.144,201.803 				"/>
				<polygon opacity="0.4" fill="#FFFFFF" enable-background="new    " points="170.891,102.631 218.711,65.713 295.094,79.762 				
					"/>
				<polygon fill="#FFFFFF" fill-opacity="0" points="283.467,475.223 219.031,197.865 365.144,201.803 				"/>
				<polygon fill="#621D36" points="324.89,336.541 365.144,201.803 449.935,409.34 				"/>
				<polygon opacity="0.4" enable-background="new    " points="449.935,409.34 371.062,216.291 811.871,180.841 				"/>
				<polygon opacity="0.1" fill="#FFFFFF" enable-background="new    " points="283.467,475.223 324.89,336.541 449.935,409.34 				
					"/>
				<polygon opacity="0.1" fill="#FFFFFF" enable-background="new    " points="626.856,594.326 449.935,409.34 713.986,242.637 
									"/>
				<polygon opacity="0.1" enable-background="new    " points="626.856,594.326 713.986,242.637 1132.591,438.916 				"/>
				<polygon fill="#621D36" points="713.986,242.637 811.871,180.841 936.945,347.178 				"/>
				<polygon opacity="0.1" fill="#FFFFFF" enable-background="new    " points="811.871,180.841 1217.267,165.707 936.945,347.178 
									"/>
				<polygon opacity="0.4" fill="#FFFFFF" enable-background="new    " points="936.945,347.178 1217.267,165.707 1132.591,438.916 
									"/>
				<polygon opacity="0.2" fill="#FFFFFF" enable-background="new    " points="1132.591,438.916 1217.267,165.707 
					1501.263,552.979 				"/>
				<polygon fill="#E10051" points="1217.267,165.707 1516.354,168.062 1501.263,552.979 				"/>
				<polygon fill="#620023" points="1501.263,552.979 1511.093,302.313 1586.918,455.832 				"/>
				<polygon opacity="0.3" enable-background="new    " points="1511.093,302.313 1516.354,168.062 1941.213,203.527 				"/>
				<polygon opacity="0.2" fill="#FFFFFF" enable-background="new    " points="1586.918,455.832 1511.093,302.313 
					1791.253,237.967 				"/>
				<polygon opacity="0.1" fill="#FFFFFF" enable-background="new    " points="1586.918,455.832 1791.253,237.967 1809.27,363.508 
									"/>
				<polygon opacity="0.4" fill="#FFFFFF" enable-background="new    " points="1809.27,363.508 1791.253,237.967 1996.578,279.762 
									"/>
				<polygon opacity="0.1" fill="#FFFFFF" enable-background="new    " points="1791.253,237.967 1941.213,203.527 
					1996.578,279.762 				"/>
				<polygon opacity="0.4" fill="#FFFFFF" enable-background="new    " points="1997,279.762 1941.643,203.527 1997,209.352 				"/>
				<polygon opacity="0.4" enable-background="new    " points="1996.578,279.762 1996.952,209.352 2028.864,227.014 				"/>
				<polygon opacity="0.2" enable-background="new    " points="626.856,594.326 283.467,475.223 449.935,409.34 				"/>
				<polygon opacity="0.1" fill="#FFFFFF" enable-background="new    " points="465.096,744.244 283.467,475.223 626.856,594.326 
									"/>
				<polygon opacity="0.1" enable-background="new    " points="465.096,744.244 626.856,594.326 619.263,800.961 				"/>
				<polygon opacity="0.3" enable-background="new    " points="619.263,800.961 626.856,594.326 812.331,628.68 				"/>
				<polygon opacity="0.1" fill="#FFFFFF" enable-background="new    " points="766.002,803.23 619.263,800.961 812.331,628.68 				
					"/>
				<polygon opacity="0.3" fill="#FFFFFF" enable-background="new    " points="766.002,803.23 812.331,628.68 901.68,781.431 				
					"/>
				<polygon fill="#621D36" points="901.68,781.431 812.331,628.68 951.044,494.702 				"/>
				<polygon opacity="0.2" fill="#FFFFFF" enable-background="new    " points="812.331,628.68 626.856,594.326 951.044,494.702 
									"/>
				<polygon opacity="0.3" enable-background="new    " points="901.68,781.431 951.044,494.702 1178.521,726.736 				"/>
				<polygon opacity="0.1" fill="#FFFFFF" enable-background="new    " points="951.044,494.702 1132.591,438.916 1178.521,726.736 
									"/>
				<polygon opacity="0.4" fill="#FFFFFF" enable-background="new    " points="1178.521,726.736 1132.591,438.916 1409.817,620.49 
									"/>
				<polygon opacity="0.1" fill="#FFFFFF" enable-background="new    " points="1409.817,620.49 1132.591,438.916 1501.263,552.979 
									"/>
				<polygon opacity="0.1" enable-background="new    " points="1362.256,730.156 1178.521,726.945 1409.817,620.691 				"/>
				<polygon opacity="0.4" fill="#FFFFFF" enable-background="new    " points="1259.536,887.434 1178.521,726.945 
					1362.256,730.156 				"/>
				<polygon fill="#620023" points="1148.938,884.629 1178.521,726.945 1259.536,887.434 				"/>
				<polygon fill="#AE003E" points="1178.312,920.376 1148.938,884.629 1259.536,887.434 				"/>
			</g>
		</g>
		<g>
			<path d="M219.427,1231.771h15.206c3.456,0,5.662,1.602,6.617,4.823l63.876,208.082c0.717,2.39,1.34,4.947,1.876,7.691
				c0.54,2.748,1.104,5.604,1.7,8.584c0.595-2.979,1.19-5.836,1.787-8.584c0.601-2.744,1.314-5.303,2.147-7.691l71.566-208.082
				c0.481-1.312,1.314-2.438,2.505-3.399c1.193-0.949,2.623-1.424,4.298-1.424h5.006c1.671,0,3.046,0.446,4.122,1.339
				c1.069,0.892,1.902,2.054,2.499,3.484l71.568,208.082c0.828,2.39,1.579,4.897,2.234,7.515c0.651,2.625,1.279,5.424,1.882,8.41
				c0.591-2.867,1.131-5.636,1.604-8.32c0.476-2.684,1.071-5.215,1.793-7.604l63.87-208.082c0.359-1.312,1.166-2.438,2.413-3.399
				c1.258-0.949,2.719-1.424,4.386-1.424h13.954l-79.617,253.165h-16.459l-74.791-219.714c-0.953-2.861-1.783-5.906-2.505-9.13
				c-0.708,3.224-1.546,6.269-2.501,9.13l-74.967,219.714H299.22L219.427,1231.771z"/>
			<path d="M802.511,1484.938h-18.426V1363.63H625.559v121.308h-18.424v-253.166h18.424v118.08h158.526v-118.08h18.426V1484.938
				L802.511,1484.938z"/>
			<path d="M964.605,1231.771h-18.248l-103.596,253.164h13.952c1.675,0,3.104-0.481,4.296-1.436
				c1.192-0.962,2.026-2.089,2.509-3.404l86.948-214.874c0.834-2.149,1.672-4.497,2.509-7.062c0.83-2.571,1.664-5.276,2.501-8.141
				c0.834,2.863,1.672,5.568,2.506,8.141c0.834,2.565,1.672,4.854,2.505,6.886l86.952,215.052c0.595,1.439,1.429,2.595,2.506,3.493
				c1.068,0.891,2.441,1.348,4.117,1.348h14.131L964.605,1231.771z"/>
			<path d="M1126.52,1469.363h120.049v15.572h-138.301v-253.164h18.252V1469.363L1126.52,1469.363z"/>
			<path fill="#E10051" d="M1443.017,1226.221v38.287h-114.684v71.742h90.35v37.041h-90.35v73.174h114.684v38.472h-163.172v-258.716
				H1443.017z"/>
			<path fill="#E10051" d="M1610.477,1226.221h-49.201l-101.623,258.717h37.392c4.057,0,7.483-1.14,10.294-3.4
				c2.798-2.271,4.674-4.774,5.631-7.516l63.154-172.479c1.552-3.93,3.134-8.522,4.744-13.775
				c1.608-5.249,3.245-10.909,4.924-16.993c1.668,6.084,3.366,11.715,5.095,16.912c1.726,5.177,3.308,9.686,4.74,13.497
				l63.162,172.84c1.185,3.097,3.13,5.689,5.809,7.773c2.683,2.092,6.109,3.142,10.293,3.142h37.21L1610.477,1226.221z"/>
			<path fill="#E10051" d="M1894.773,1226.221v39.541h-77.825v219.176h-48.129v-219.176h-78.188v-39.541H1894.773z"/>
		</g>
	</g>
</g>
</svg>
