<?xml version="1.0" encoding="utf-8"?>
<!-- Generator: Adobe Illustrator 16.0.0, SVG Export Plug-In . SVG Version: 6.00 Build 0)  -->
<!DOCTYPE svg PUBLIC "-//W3C//DTD SVG 1.1//EN" "http://www.w3.org/Graphics/SVG/1.1/DTD/svg11.dtd">
<svg version="1.1" id="Capa_1" xmlns="http://www.w3.org/2000/svg" xmlns:xlink="http://www.w3.org/1999/xlink" x="0px" y="0px"
	 width="2114.199px" height="1060.561px" viewBox="-744.298 -1428.571 2114.199 1060.561"
	 enable-background="new -744.298 -1428.571 2114.199 1060.561" xml:space="preserve">
<g>
	<g>
		<polygon fill="#F2F2F2" points="-158.229,-568.513 -279.202,-684.327 -125.035,-627.61 		"/>
		<polygon fill="#F2F2F2" points="-15.385,-476.687 -158.229,-568.513 -125.035,-627.61 		"/>
		<polygon fill="#E2E2E2" points="-15.385,-476.687 -125.035,-627.61 21.704,-625.341 		"/>
		<polygon fill="#E2E2E2" points="-15.385,-476.687 21.704,-625.341 133.438,-541.138 		"/>
		<polygon fill="#F9F9F9" points="21.704,-625.341 157.382,-647.141 133.438,-541.138 		"/>
		<polygon fill="#F4F4F4" points="-15.385,-476.687 133.438,-541.138 77.265,-433.016 		"/>
		<polygon fill="#E2E2E2" points="77.265,-433.016 133.438,-541.138 197.209,-394.164 		"/>
		<polygon fill="#FFFFFF" points="133.438,-541.138 157.382,-647.141 197.209,-394.164 		"/>
		<polygon fill="#E2E2E2" points="182.585,-487.076 157.382,-647.141 299.84,-607.583 		"/>
		<polygon fill="#FFFFFF" points="299.84,-607.583 157.382,-647.141 331.55,-680.468 		"/>
		<polygon fill="#F9F9F9" points="296.771,-374.369 182.585,-487.076 299.84,-607.583 		"/>
		<polygon fill="#F2F2F2" points="296.771,-374.369 197.209,-394.164 182.585,-487.076 		"/>
		<polygon fill="#F2F2F2" points="299.84,-607.583 331.55,-680.468 404.64,-543.943 		"/>
		<polygon fill="#F9F9F9" points="331.55,-680.468 434.224,-701.835 404.64,-543.943 		"/>
		<polygon fill="#E2E2E2" points="296.771,-374.369 299.84,-607.583 404.64,-543.943 		"/>
		<polygon fill="#EFEFEF" points="296.771,-374.369 404.64,-543.943 434.015,-508.195 		"/>
		<polygon fill="#E0E0E0" points="296.771,-374.369 434.015,-508.195 515.443,-368.012 		"/>
		<polygon fill="#F2F2F2" points="434.015,-508.195 515.238,-541.138 515.443,-368.012 		"/>
		<polygon fill="#FFFFFF" points="515.238,-541.138 617.958,-698.415 678.827,-396.248 		"/>
		<polygon fill="#E0E0E0" points="515.443,-368.012 515.238,-541.138 678.827,-396.248 		"/>
		<polygon fill="#E0E0E0" points="617.958,-698.415 665.52,-808.081 909.194,-490.978 		"/>
		<polygon fill="#EFEFEF" points="678.827,-396.248 617.958,-698.415 909.194,-490.978 		"/>
		<polygon fill="#F7F7F7" points="665.52,-808.081 756.965,-875.593 816.039,-612.208 		"/>
		<polygon fill="#FFFFFF" points="816.039,-612.208 1030.775,-698.415 909.194,-490.978 		"/>
		<polygon fill="#E0E0E0" points="816.039,-612.208 756.965,-875.593 1030.775,-698.415 		"/>
		<polygon fill="#F4F4F4" points="909.194,-490.978 1030.775,-698.415 1136.794,-672.826 		"/>
		<polygon fill="#FFFFFF" points="756.965,-875.593 842.62,-972.739 909.194,-777.089 		"/>
		<polygon fill="#F7F7F7" points="909.194,-777.089 1064.972,-1065.063 1030.775,-698.415 		"/>
		<polygon fill="#EDEDED" points="842.62,-972.739 1064.972,-1065.063 909.194,-777.089 		"/>
		<polygon fill="#FFFFFF" points="1030.775,-698.415 1064.972,-1065.063 1277.36,-870.737 		"/>
		<polygon fill="#E2E2E2" points="1030.775,-698.415 1277.36,-870.737 1136.794,-672.826 		"/>
		<polygon fill="#F2F2F2" points="1277.36,-870.737 1064.972,-1065.063 1348.67,-1043.245 		"/>
		<polygon fill="#F7F7F7" points="1064.972,-1065.063 1271.783,-1157.536 1348.67,-1043.245 		"/>
		<polygon fill="#F2F2F2" points="1348.67,-1043.245 1271.783,-1157.536 1333.583,-1186.826 		"/>
		<polygon fill="#D3D3D3" points="1348.67,-1043.245 1333.583,-1186.826 1369.901,-1143.092 		"/>
	</g>
	<g>
		<polygon fill="#FB015B" points="-145.355,-1404.225 -326.298,-1403.909 -160.572,-1428.571 		"/>
		<polygon fill="#FB015B" points="-198.569,-1317.323 -326.298,-1403.909 -145.355,-1404.225 		"/>
		<polygon fill="#FB015B" points="-326.077,-1293.586 -326.298,-1403.909 -262.643,-1360.774 		"/>
		<polygon fill="#FB015B" points="-326.077,-1293.586 -262.643,-1360.774 -198.569,-1317.323 		"/>
		<polygon fill="#FB015B" points="-306.26,-1241.635 -326.077,-1293.586 -198.569,-1317.323 		"/>
		<polygon fill="#FB015B" points="-306.26,-1241.635 -379.154,-1226.769 -326.077,-1293.586 		"/>
		<polygon fill="#FB015B" points="-326.077,-1293.586 -449.204,-1348.809 -413.569,-1390.253 		"/>
		<polygon fill="#FB015B" points="-326.077,-1293.586 -413.569,-1390.253 -326.298,-1403.909 		"/>
		<polygon fill="#FB015B" points="-573.407,-1325.94 -449.204,-1348.809 -379.154,-1226.769 		"/>
		<polygon fill="#FB015B" points="-379.154,-1226.769 -449.204,-1348.809 -326.077,-1293.586 		"/>
		<polygon fill="#FB015B" points="-525.587,-1362.858 -482.074,-1396.208 -449.204,-1348.809 		"/>
		<polygon fill="#FB015B" points="-573.407,-1325.94 -744.298,-1427.63 -482.074,-1396.208 		"/>
		<polygon fill="#FB015B" points="-737.306,-1377.123 -744.298,-1427.63 -573.407,-1325.94 		"/>
		<polygon fill="#FB015B" points="-653.709,-1279.475 -737.306,-1377.123 -573.407,-1325.94 		"/>
		<polygon fill="#FB015B" points="-653.709,-1279.475 -573.407,-1325.94 -566.535,-1231.817 		"/>
		<polygon fill="#FB015B" points="-566.535,-1231.817 -573.407,-1325.94 -379.154,-1226.769 		"/>
		<polygon fill="#FB015B" points="-573.407,-1325.94 -525.587,-1362.858 -449.204,-1348.809 		"/>
		<polygon fill="#FB015B" points="-460.831,-953.349 -525.267,-1230.706 -379.154,-1226.769 		"/>
		<polygon fill="#FB015B" points="-419.408,-1092.03 -379.154,-1226.769 -294.363,-1019.231 		"/>
		<polygon fill="#FB015B" points="-294.363,-1019.231 -373.236,-1212.28 67.573,-1247.73 		"/>
		<polygon fill="#FB015B" points="-460.831,-953.349 -419.408,-1092.03 -294.363,-1019.231 		"/>
		<polygon fill="#FB015B" points="-117.441,-834.245 -294.363,-1019.231 -30.312,-1185.934 		"/>
		<polygon fill="#FB015B" points="-117.441,-834.245 -30.312,-1185.934 388.293,-989.655 		"/>
		<polygon fill="#FB015B" points="-30.312,-1185.934 67.573,-1247.73 192.647,-1081.394 		"/>
		<polygon fill="#FB015B" points="67.573,-1247.73 472.969,-1262.864 192.647,-1081.394 		"/>
		<polygon fill="#FB015B" points="192.647,-1081.394 472.969,-1262.864 388.293,-989.655 		"/>
		<polygon fill="#FB015B" points="388.293,-989.655 472.969,-1262.864 756.965,-875.593 		"/>
		<polygon fill="#FB015B" points="472.969,-1262.864 772.056,-1260.509 756.965,-875.593 		"/>
		<polygon fill="#FB015B" points="756.965,-875.593 766.795,-1126.258 842.62,-972.739 		"/>
		<polygon fill="#FB015B" points="766.795,-1126.258 772.056,-1260.509 1196.915,-1225.044 		"/>
		<polygon fill="#FB015B" points="842.62,-972.739 766.795,-1126.258 1046.955,-1190.604 		"/>
		<polygon fill="#FB015B" points="842.62,-972.739 1046.955,-1190.604 1064.972,-1065.063 		"/>
		<polygon fill="#FB015B" points="1064.972,-1065.063 1046.955,-1190.604 1252.28,-1148.809 		"/>
		<polygon fill="#FB015B" points="1046.955,-1190.604 1196.915,-1225.044 1252.28,-1148.809 		"/>
		<polygon fill="#FB015B" points="1252.28,-1148.809 1196.915,-1225.044 1252.654,-1219.219 		"/>
		<polygon fill="#FB015B" points="1252.28,-1148.809 1252.654,-1219.219 1284.566,-1201.557 		"/>
		<polygon fill="#FB015B" points="-117.441,-834.245 -460.831,-953.349 -294.363,-1019.231 		"/>
		<polygon fill="#FB015B" points="-279.202,-684.327 -460.831,-953.349 -117.441,-834.245 		"/>
		<polygon fill="#FB015B" points="-279.202,-684.327 -117.441,-834.245 -125.035,-627.61 		"/>
		<polygon fill="#FB015B" points="-125.035,-627.61 -117.441,-834.245 68.033,-799.892 		"/>
		<polygon fill="#FB015B" points="21.704,-625.341 -125.035,-627.61 68.033,-799.892 		"/>
		<polygon fill="#FB015B" points="21.704,-625.341 68.033,-799.892 157.382,-647.141 		"/>
		<polygon fill="#FB015B" points="157.382,-647.141 68.033,-799.892 206.746,-933.869 		"/>
		<polygon fill="#FB015B" points="68.033,-799.892 -117.441,-834.245 206.746,-933.869 		"/>
		<polygon fill="#FB015B" points="157.382,-647.141 206.746,-933.869 434.224,-701.835 		"/>
		<polygon fill="#FB015B" points="206.746,-933.869 388.293,-989.655 434.224,-701.835 		"/>
		<polygon fill="#FB015B" points="434.224,-701.835 388.293,-989.655 665.52,-808.081 		"/>
		<polygon fill="#FB015B" points="665.52,-808.081 388.293,-989.655 756.965,-875.593 		"/>
		<polygon fill="#FB015B" points="617.958,-698.415 434.224,-701.626 665.52,-807.88 		"/>
		<polygon fill="#FB015B" points="515.238,-541.138 434.224,-701.626 617.958,-698.415 		"/>
		<polygon fill="#FB015B" points="404.64,-543.943 434.224,-701.626 515.238,-541.138 		"/>
		<polygon fill="#FB015B" points="434.015,-508.195 404.64,-543.943 515.238,-541.138 		"/>
		<polygon opacity="0.1" fill="#FFFFFF" enable-background="new    " points="-145.355,-1404.225 -326.298,-1403.909 
			-160.572,-1428.571 		"/>
		<polygon opacity="0.1" enable-background="new    " points="-198.569,-1317.323 -326.298,-1403.909 -145.355,-1404.225 		"/>
		<polygon opacity="0.1" fill="#FFFFFF" enable-background="new    " points="-326.077,-1293.586 -326.298,-1403.909 
			-262.643,-1360.774 		"/>
		<polygon opacity="0.3" fill="#FFFFFF" enable-background="new    " points="-326.077,-1293.586 -262.643,-1360.774 
			-198.569,-1317.323 		"/>
		<polygon fill="#621D36" points="-306.26,-1241.635 -326.077,-1293.586 -198.569,-1317.323 		"/>
		<polygon opacity="0.1" fill="#FFFFFF" enable-background="new    " points="-306.26,-1241.635 -379.154,-1226.769 
			-326.077,-1293.586 		"/>
		<polygon opacity="0.1" fill="#FFFFFF" enable-background="new    " points="-326.077,-1293.586 -449.204,-1348.809 
			-413.569,-1390.253 		"/>
		<polygon opacity="0.3" fill="#FFFFFF" enable-background="new    " points="-326.077,-1293.586 -413.569,-1390.253 
			-326.298,-1403.909 		"/>
		<polygon opacity="0.1" fill="#FFFFFF" enable-background="new    " points="-573.407,-1325.94 -449.204,-1348.809 
			-379.154,-1226.769 		"/>
		<polygon fill="#AE003E" points="-379.154,-1226.769 -449.204,-1348.809 -326.077,-1293.586 		"/>
		<polygon opacity="0.1" fill="#FFFFFF" enable-background="new    " points="-525.587,-1362.858 -482.074,-1396.208 
			-449.204,-1348.809 		"/>
		<polygon opacity="0.2" enable-background="new    " points="-573.407,-1325.94 -744.298,-1427.63 -482.074,-1396.208 		"/>
		<polygon fill="#620023" points="-737.306,-1377.123 -744.298,-1427.63 -573.407,-1325.94 		"/>
		<polygon fill="#621D36" points="-653.709,-1279.475 -737.306,-1377.123 -573.407,-1325.94 		"/>
		<polygon opacity="0.1" fill="#FFFFFF" enable-background="new    " points="-653.709,-1279.475 -573.407,-1325.94 
			-566.535,-1231.817 		"/>
		<polygon opacity="0.3" enable-background="new    " points="-566.535,-1231.817 -573.407,-1325.94 -379.154,-1226.769 		"/>
		<polygon opacity="0.4" fill="#FFFFFF" enable-background="new    " points="-573.407,-1325.94 -525.587,-1362.858 
			-449.204,-1348.809 		"/>
		<polygon fill="#FFFFFF" fill-opacity="0" points="-460.831,-953.349 -525.267,-1230.706 -379.154,-1226.769 		"/>
		<polygon fill="#621D36" points="-419.408,-1092.03 -379.154,-1226.769 -294.363,-1019.231 		"/>
		<polygon opacity="0.4" enable-background="new    " points="-294.363,-1019.231 -373.236,-1212.28 67.573,-1247.73 		"/>
		<polygon opacity="0.1" fill="#FFFFFF" enable-background="new    " points="-460.831,-953.349 -419.408,-1092.03 
			-294.363,-1019.231 		"/>
		<polygon opacity="0.1" fill="#FFFFFF" enable-background="new    " points="-117.441,-834.245 -294.363,-1019.231 
			-30.312,-1185.934 		"/>
		<polygon opacity="0.1" enable-background="new    " points="-117.441,-834.245 -30.312,-1185.934 388.293,-989.655 		"/>
		<polygon fill="#621D36" points="-30.312,-1185.934 67.573,-1247.73 192.647,-1081.394 		"/>
		<polygon opacity="0.1" fill="#FFFFFF" enable-background="new    " points="67.573,-1247.73 472.969,-1262.864 192.647,-1081.394 
					"/>
		<polygon opacity="0.4" fill="#FFFFFF" enable-background="new    " points="192.647,-1081.394 472.969,-1262.864 
			388.293,-989.655 		"/>
		<polygon opacity="0.2" fill="#FFFFFF" enable-background="new    " points="388.293,-989.655 472.969,-1262.864 756.965,-875.593 
					"/>
		<polygon fill="#E10051" points="472.969,-1262.864 772.056,-1260.509 756.965,-875.593 		"/>
		<polygon fill="#620023" points="756.965,-875.593 766.795,-1126.258 842.62,-972.739 		"/>
		<polygon opacity="0.3" enable-background="new    " points="766.795,-1126.258 772.056,-1260.509 1196.915,-1225.044 		"/>
		<polygon opacity="0.2" fill="#FFFFFF" enable-background="new    " points="842.62,-972.739 766.795,-1126.258 
			1046.955,-1190.604 		"/>
		<polygon opacity="0.1" fill="#FFFFFF" enable-background="new    " points="842.62,-972.739 1046.955,-1190.604 
			1064.972,-1065.063 		"/>
		<polygon opacity="0.4" fill="#FFFFFF" enable-background="new    " points="1064.972,-1065.063 1046.955,-1190.604 
			1252.28,-1148.809 		"/>
		<polygon opacity="0.1" fill="#FFFFFF" enable-background="new    " points="1046.955,-1190.604 1196.915,-1225.044 
			1252.28,-1148.809 		"/>
		<polygon opacity="0.4" fill="#FFFFFF" enable-background="new    " points="1252.702,-1148.809 1197.345,-1225.044 
			1252.702,-1219.219 		"/>
		<polygon opacity="0.4" enable-background="new    " points="1252.28,-1148.809 1252.654,-1219.219 1284.566,-1201.557 		"/>
		<polygon opacity="0.2" enable-background="new    " points="-117.441,-834.245 -460.831,-953.349 -294.363,-1019.231 		"/>
		<polygon opacity="0.1" fill="#FFFFFF" enable-background="new    " points="-279.202,-684.327 -460.831,-953.349 
			-117.441,-834.245 		"/>
		<polygon opacity="0.1" enable-background="new    " points="-279.202,-684.327 -117.441,-834.245 -125.035,-627.61 		"/>
		<polygon opacity="0.3" enable-background="new    " points="-125.035,-627.61 -117.441,-834.245 68.033,-799.892 		"/>
		<polygon opacity="0.1" fill="#FFFFFF" enable-background="new    " points="21.704,-625.341 -125.035,-627.61 68.033,-799.892 		
			"/>
		<polygon opacity="0.3" fill="#FFFFFF" enable-background="new    " points="21.704,-625.341 68.033,-799.892 157.382,-647.141 		
			"/>
		<polygon fill="#621D36" points="157.382,-647.141 68.033,-799.892 206.746,-933.869 		"/>
		<polygon opacity="0.2" fill="#FFFFFF" enable-background="new    " points="68.033,-799.892 -117.441,-834.245 206.746,-933.869 
					"/>
		<polygon opacity="0.3" enable-background="new    " points="157.382,-647.141 206.746,-933.869 434.224,-701.835 		"/>
		<polygon opacity="0.1" fill="#FFFFFF" enable-background="new    " points="206.746,-933.869 388.293,-989.655 434.224,-701.835 
					"/>
		<polygon opacity="0.4" fill="#FFFFFF" enable-background="new    " points="434.224,-701.835 388.293,-989.655 665.52,-808.081 		
			"/>
		<polygon opacity="0.1" fill="#FFFFFF" enable-background="new    " points="665.52,-808.081 388.293,-989.655 756.965,-875.593 		
			"/>
		<polygon opacity="0.1" enable-background="new    " points="617.958,-698.415 434.224,-701.626 665.52,-807.88 		"/>
		<polygon opacity="0.4" fill="#FFFFFF" enable-background="new    " points="515.238,-541.138 434.224,-701.626 617.958,-698.415 
					"/>
		<polygon fill="#620023" points="404.64,-543.943 434.224,-701.626 515.238,-541.138 		"/>
		<polygon fill="#AE003E" points="434.015,-508.195 404.64,-543.943 515.238,-541.138 		"/>
	</g>
</g>
</svg>
